<svg xmlns="http://www.w3.org/2000/svg" width="87" height="65" viewBox="0 0 87 65" fill="none"><mask id="mask0_1_62" style="mask-type:alpha" maskUnits="userSpaceOnUse" x="0" y="0" width="87" height="65"><path d="M0 0H86.28V64.71H0V0Z" fill="white"></path></mask><g mask="url(#mask0_1_62)"><path fill-rule="evenodd" clip-rule="evenodd" d="M0 0V64.71H86.28V0H0Z" fill="#2E42A5"></path><mask id="mask1_1_62" style="mask-type:alpha" maskUnits="userSpaceOnUse" x="0" y="0" width="87" height="65"><path fill-rule="evenodd" clip-rule="evenodd" d="M0 0V64.71H86.28V0H0Z" fill="white"></path></mask><g mask="url(#mask1_1_62)"><mask id="mask2_1_62" style="mask-type:alpha" maskUnits="userSpaceOnUse" x="0" y="0" width="87" height="65"><path d="M0 0H86.28V64.71H0V0Z" fill="white"></path></mask><g mask="url(#mask2_1_62)"><path d="M-9.60736 60.087L9.3788 68.1164L86.7106 8.72994L96.7253 -3.20226L76.4225 -5.88599L44.8807 19.7054L19.4927 36.9481L-9.60736 60.087Z" fill="white"></path><path d="M-7.0082 65.7127L2.66436 70.3724L93.129 -4.31087H79.5477L-7.0082 65.7127Z" fill="#F50100"></path><path d="M95.887 60.087L76.9008 68.1164L-0.430908 8.72994L-10.4457 -3.20226L9.8573 -5.88599L41.399 19.7054L66.7869 36.9481L95.887 60.087Z" fill="white"></path><path d="M95.2394 64.1246L85.5668 68.7843L47.0461 36.8087L35.6253 33.2359L-11.4092 -3.16125H2.1722L49.1804 32.372L61.6667 36.6561L95.2394 64.1246Z" fill="#F50100"></path><path fill-rule="evenodd" clip-rule="evenodd" d="M53.3256 -5.3925H32.9541V21.57H-5.31844V43.14H32.9541V70.1025H53.3256V43.14H91.7466V21.57H53.3256V-5.3925Z" fill="#F50100"></path><mask id="mask3_1_62" style="mask-type:alpha" maskUnits="userSpaceOnUse" x="-6" y="-6" width="98" height="77"><path fill-rule="evenodd" clip-rule="evenodd" d="M53.3256 -5.3925H32.9541V21.57H-5.31844V43.14H32.9541V70.1025H53.3256V43.14H91.7466V21.57H53.3256V-5.3925Z" fill="white"></path></mask><g mask="url(#mask3_1_62)"><path d="M32.9541 -5.3925V-10.785H27.5616V-5.3925H32.9541ZM53.3256 -5.3925H58.7181V-10.785H53.3256V-5.3925ZM32.9541 21.57V26.9625H38.3466V21.57H32.9541ZM-5.31844 21.57V16.1775H-10.7109V21.57H-5.31844ZM-5.31844 43.14H-10.7109V48.5325H-5.31844V43.14ZM32.9541 43.14H38.3466V37.7475H32.9541V43.14ZM32.9541 70.1025H27.5616V75.495H32.9541V70.1025ZM53.3256 70.1025V75.495H58.7181V70.1025H53.3256ZM53.3256 43.14V37.7475H47.9331V43.14H53.3256ZM91.7466 43.14V48.5325H97.1391V43.14H91.7466ZM91.7466 21.57H97.1391V16.1775H91.7466V21.57ZM53.3256 21.57H47.9331V26.9625H53.3256V21.57ZM32.9541 0H53.3256V-10.785H32.9541V0ZM38.3466 21.57V-5.3925H27.5616V21.57H38.3466ZM-5.31844 26.9625H32.9541V16.1775H-5.31844V26.9625ZM0.0740508 43.14V21.57H-10.7109V43.14H0.0740508ZM32.9541 37.7475H-5.31844V48.5325H32.9541V37.7475ZM38.3466 70.1025V43.14H27.5616V70.1025H38.3466ZM53.3256 64.71H32.9541V75.495H53.3256V64.71ZM47.9331 43.14V70.1025H58.7181V43.14H47.9331ZM91.7466 37.7475H53.3256V48.5325H91.7466V37.7475ZM86.3541 21.57V43.14H97.1391V21.57H86.3541ZM53.3256 26.9625H91.7466V16.1775H53.3256V26.9625ZM47.9331 -5.3925V21.57H58.7181V-5.3925H47.9331Z" fill="white"></path></g></g></g></g></svg>
