<svg width="43" height="46" viewBox="0 0 43 46" xmlns="http://www.w3.org/2000/svg">
<path d="M12.6475 2.57628e-07H6.73182H0V34.1612H6.73182L6.73182 23.6727H12.6475C14.4147 23.6738 16.1597 23.2792 17.7545 22.5178V46H24.4863V11.8388L6.73182 23.6727L6.73182 2.57628e-07L24.4863 11.8388C24.4866 10.2841 24.1806 8.7444 23.5858 7.30791C22.991 5.87141 22.1189 4.56619 21.0195 3.46679C19.9201 2.36739 18.6149 1.49535 17.1784 0.900513C15.7419 0.305672 14.2023 -0.000324121 12.6475 2.57628e-07Z" fill="#1a1a1a"/>
<path d="M24.4863 35.509H30.4045C31.9589 35.51 33.4983 35.2046 34.9347 34.6102C36.371 34.0159 37.6761 33.1443 38.7753 32.0453C39.8746 30.9462 40.7465 29.6413 41.3411 28.2051C41.9354 26.7697 42.2412 25.2312 42.2408 23.6776" fill="#1a1a1a"/>
<path d="M24.4863 35.509L42.239 23.6764Z" fill="#1a1a1a"/>
<path d="M42.239 23.6764L24.4863 11.8388H30.4045C31.9592 11.8385 33.4987 12.1445 34.935 12.7394C36.3714 13.3343 37.6765 14.2063 38.7757 15.3058C39.8749 16.4052 40.7467 17.7105 41.3412 19.1469C41.9355 20.5826 42.2412 22.1213 42.2408 23.6751" fill="#1a1a1a"/>
</svg>
