<svg width="270" height="30" viewBox="0 0 270 30" fill="none" xmlns="http://www.w3.org/2000/svg">
<path d="M4.39209 15.4362H8.24866C9.40008 15.4396 10.5373 15.182 11.5748 14.6828V30H15.9668V7.72308L4.39209 15.4362Z" fill="#1A1A1A"/>
<path d="M0 0V22.2769H4.39193V15.4362V0H0Z" fill="#1A1A1A"/>
<path d="M8.24866 0H4.39209L15.9668 7.72307C15.9674 6.7091 15.7683 5.70493 15.3807 4.76796C14.9931 3.83098 14.4247 2.97956 13.7079 2.26234C12.9912 1.54513 12.1401 0.976164 11.2034 0.587983C10.2667 0.199801 9.26264 -2.09131e-07 8.24866 0Z" fill="#1A1A1A"/>
<path d="M15.9668 23.1593H19.8283C21.8753 23.1593 23.8384 22.3461 25.2859 20.8987C26.7333 19.4513 27.5464 17.4881 27.5464 15.4412L15.9668 23.1593Z" fill="#1A1A1A"/>
<path d="M19.8283 7.72311H15.9668L27.5464 15.4412C27.5464 13.3943 26.7333 11.4311 25.2859 9.98369C23.8384 8.53626 21.8753 7.72311 19.8283 7.72311Z" fill="#1A1A1A"/>
<path d="M92.2109 16.7945L90.0992 16.2195C87.5017 15.4958 85.9601 14.3953 85.9601 11.9911C85.9601 9.34903 88.3147 7.48022 91.5764 7.48022C94.2383 7.48022 96.241 8.6253 97.277 10.2562L96.1071 11.5301C95.6389 10.7449 94.9702 10.0983 94.1697 9.65669C93.3691 9.21506 92.4656 8.99425 91.5516 9.01691C89.8117 9.01691 88.6022 9.85465 88.6022 11.2624C88.6022 12.5661 89.4151 13.1164 91.2443 13.5972L93.3808 14.1921C95.9138 14.8761 97.5397 16.041 97.5397 18.4452C97.5397 21.4839 94.8976 23.3527 91.5913 23.3527C88.7955 23.3527 86.3269 22.0985 85.1818 20.0711L86.4161 18.926C86.9594 19.8052 87.7224 20.5277 88.6298 21.0223C89.5373 21.5169 90.558 21.7665 91.5913 21.7466C93.4601 21.7466 94.9174 20.9535 94.9174 19.3028C94.9174 17.8702 93.926 17.3199 92.2059 16.8242L92.2109 16.7945Z" fill="#1A1A1A"/>
<path fill-rule="evenodd" clip-rule="evenodd" d="M43.1908 17.1464V23.0948H40.3306V7.67846H46.3187C49.9076 7.67846 52.3762 9.24488 52.3762 12.4124C52.3762 15.58 49.8976 17.1266 46.3187 17.1266L43.1908 17.1464ZM45.5057 15.6246C48.1676 15.6246 49.3821 14.658 49.3821 12.4323C49.3821 10.2065 48.1676 9.19531 45.5057 9.19531H43.1908V15.6395L45.5057 15.6246Z" fill="#1A1A1A"/>
<path d="M55.3256 7.69831H66.3154V9.25977H58.1908V14.3705H64.159V15.9319H58.1908V21.5235H66.6673V23.1097H55.3256V7.69831Z" fill="#1A1A1A"/>
<path fill-rule="evenodd" clip-rule="evenodd" d="M70.2611 23.1147H73.1213L73.1064 16.4029H75.585C77.3695 16.4029 77.9842 16.9531 78.5146 18.4749L79.4168 20.9534C79.6636 21.7094 79.9962 22.4345 80.4082 23.1147H83.6451C83.0617 22.3896 82.6073 21.5697 82.3018 20.6907L81.5136 18.5096C80.9187 16.7945 79.9273 15.9369 77.9891 15.7585V15.694C80.2793 15.6494 82.6141 14.5489 82.6141 11.8622C82.6141 8.82356 79.9719 7.69831 76.7994 7.69831H70.2611V23.1147ZM75.9419 14.9207H73.1213V9.19534H75.9419C78.1874 9.19534 79.5506 10.0777 79.5506 11.9911C79.5506 14.1276 78.0784 14.9207 75.9419 14.9207Z" fill="#1A1A1A"/>
<path fill-rule="evenodd" clip-rule="evenodd" d="M103.949 23.0948V17.1464L107.077 17.1266C110.651 17.1266 113.13 15.58 113.13 12.4124C113.13 9.24488 110.666 7.67846 107.077 7.67846H101.089V23.0948H103.949ZM110.135 12.4323C110.135 14.658 108.926 15.6246 106.264 15.6246L103.949 15.6395V9.19531H106.264C108.926 9.19531 110.135 10.2065 110.135 12.4323Z" fill="#1A1A1A"/>
<path d="M116.084 7.69831H127.074V9.25977H118.949V14.3705H124.912V15.9319H118.949V21.5235H127.426V23.1097H116.084V7.69831Z" fill="#1A1A1A"/>
<path d="M133.855 17.543L135.749 15.7138L141.34 23.1097H144.82L137.731 13.7955L144.007 7.69831H141.628L133.855 15.4709V7.69831H130.995V23.1097H133.855V17.543Z" fill="#1A1A1A"/>
<path d="M152.003 9.23994H146.188V7.69831H160.677V9.23994H154.863V23.1097H152.003V9.23994Z" fill="#1A1A1A"/>
<path d="M163.959 7.69831H166.819V23.1097H163.959V7.69831Z" fill="#1A1A1A"/>
<path d="M182.855 7.69831H184.704L177.963 23.199H176.798L169.952 7.69831H173.011L177.963 19.3226L182.855 7.69831Z" fill="#1A1A1A"/>
<path d="M198.817 7.69831H187.832V23.1097H199.169V21.5235H190.692V15.9319H196.661V14.3705H190.692V9.25977H198.817V7.69831Z" fill="#1A1A1A"/>
<path d="M213.901 7.69831H215.755V23.1543H214.63L204.592 10.9353V23.1097H202.738V7.69831H205.494L213.901 18.004V7.69831Z" fill="#1A1A1A"/>
<path fill-rule="evenodd" clip-rule="evenodd" d="M229.694 23.0948V17.1464L232.817 17.1266C236.396 17.1266 238.875 15.58 238.875 12.4124C238.875 9.24488 236.406 7.67846 232.817 7.67846H226.829V23.0948H229.694ZM235.881 12.4323C235.881 14.658 234.671 15.6246 232.004 15.6246L229.694 15.6395V9.19531H232.004C234.671 9.19531 235.881 10.2065 235.881 12.4323Z" fill="#1A1A1A"/>
<path fill-rule="evenodd" clip-rule="evenodd" d="M249.443 18.8219H243.237L241.408 23.1147H239.603L246.365 7.61407H247.549L254.355 23.1147H251.342L249.443 18.8219ZM243.852 17.3894H248.809L246.276 11.6392L243.852 17.3894Z" fill="#1A1A1A"/>
<path d="M254.688 9.23994H260.502V23.1097H263.363V9.23994H269.177V7.69831H254.688V9.23994Z" fill="#1A1A1A"/>
</svg>
