<svg width="144" height="100" viewBox="0 0 144 100" fill="none" xmlns="http://www.w3.org/2000/svg">
<g opacity="0.8">
<path d="M8.02964 65.0561C7.14388 65.0561 6.37365 64.7287 5.71895 64.074C5.06426 63.4194 4.73691 62.6491 4.73691 61.7634V26.1788C4.73691 25.293 5.06426 24.5228 5.71895 23.8681C6.37365 23.2134 7.14388 22.886 8.02964 22.886H27.555C28.2867 22.886 28.9029 23.1364 29.4035 23.637C29.9042 24.1377 30.1545 24.7538 30.1545 25.4856C30.1545 26.2173 29.9042 26.8335 29.4035 27.3341C28.9029 27.8348 28.2867 28.0851 27.555 28.0851H11.6112C11.2646 28.0851 11.0913 28.2391 11.0913 28.5472V39.5808C11.0913 39.9274 11.2646 40.1007 11.6112 40.1007H26.5151C27.2084 40.1007 27.786 40.351 28.2482 40.8516C28.7488 41.3138 28.9991 41.8914 28.9991 42.5846C28.9991 43.2779 28.7488 43.8748 28.2482 44.3754C27.786 44.8376 27.2084 45.0686 26.5151 45.0686H11.6112C11.2646 45.0686 11.0913 45.2419 11.0913 45.5885V59.3371C11.0913 59.6837 11.2646 59.857 11.6112 59.857H27.555C28.2867 59.857 28.9029 60.1074 29.4035 60.608C29.9042 61.1087 30.1545 61.7248 30.1545 62.4566C30.1545 63.1883 29.9042 63.8045 29.4035 64.3051C28.9029 64.8058 28.2867 65.0561 27.555 65.0561H8.02964ZM52.625 46.2817C48.2347 44.7798 45.0575 42.989 43.0934 40.9094C41.1679 38.7913 40.2051 36.2495 40.2051 33.2841C40.2051 29.8951 41.2834 27.2186 43.44 25.2545C45.5967 23.2904 48.5621 22.3084 52.3362 22.3084C55.8792 22.3084 58.9987 22.732 61.6945 23.5792C62.5032 23.8488 63.1579 24.3687 63.6586 25.139C64.1977 25.8707 64.4673 26.6987 64.4673 27.6229C64.4673 28.2776 64.1785 28.7783 63.6008 29.1249C63.0231 29.4715 62.4262 29.51 61.81 29.2404C58.8831 28.0081 55.9178 27.3919 52.9139 27.3919C50.8342 27.3919 49.236 27.9118 48.1192 28.9516C47.0023 29.9914 46.4439 31.4356 46.4439 33.2841C46.4439 34.7861 46.9638 36.1532 48.0036 37.3856C49.0435 38.5795 50.5839 39.523 52.625 40.2162C57.7085 41.9107 61.2323 43.7978 63.1964 45.8774C65.199 47.957 66.2003 50.595 66.2003 53.7915C66.2003 57.6811 65.0065 60.6273 62.6187 62.6299C60.231 64.6325 56.7072 65.6338 52.0474 65.6338C49.0049 65.6338 46.2514 65.1716 43.7866 64.2474C41.9766 63.5156 41.0716 62.0907 41.0716 59.9726C41.0716 59.3179 41.3604 58.8365 41.9381 58.5284C42.5158 58.2203 43.0934 58.2203 43.6711 58.5284C46.0588 59.7993 48.6583 60.4347 51.4697 60.4347C57.0538 60.4347 59.8459 58.2203 59.8459 53.7915C59.8459 52.097 59.2875 50.6528 58.1707 49.4589C57.0924 48.2651 55.2438 47.206 52.625 46.2817ZM77.5182 28.2006C76.7865 28.2006 76.151 27.9503 75.6119 27.4496C75.1112 26.9105 74.8609 26.275 74.8609 25.5433C74.8609 24.8116 75.1112 24.1954 75.6119 23.6948C76.151 23.1556 76.7865 22.886 77.5182 22.886H102.243C102.974 22.886 103.59 23.1556 104.091 23.6948C104.63 24.1954 104.9 24.8116 104.9 25.5433C104.9 26.275 104.63 26.9105 104.091 27.4496C103.59 27.9503 102.974 28.2006 102.243 28.2006H93.5775C93.2309 28.2006 93.0576 28.3739 93.0576 28.7205V61.8789C93.0576 62.7647 92.7495 63.5156 92.1333 64.1318C91.5171 64.748 90.7661 65.0561 89.8804 65.0561C88.9946 65.0561 88.2436 64.748 87.6274 64.1318C87.0113 63.5156 86.7032 62.7647 86.7032 61.8789V28.7205C86.7032 28.3739 86.5299 28.2006 86.1833 28.2006H77.5182ZM123.757 28.7205L117.692 48.4191C117.653 48.5347 117.672 48.6502 117.749 48.7657C117.826 48.8428 117.923 48.8813 118.038 48.8813H129.592C129.707 48.8813 129.804 48.8428 129.881 48.7657C129.958 48.6502 129.977 48.5347 129.938 48.4191L123.873 28.7205C123.873 28.682 123.853 28.6627 123.815 28.6627C123.776 28.6627 123.757 28.682 123.757 28.7205ZM109.315 65.0561C108.507 65.0561 107.852 64.7287 107.351 64.074C106.889 63.4194 106.793 62.7069 107.062 61.9367L119.425 26.0055C119.733 25.0812 120.291 24.3302 121.1 23.7525C121.909 23.1749 122.794 22.886 123.757 22.886H124.104C125.105 22.886 125.991 23.1749 126.761 23.7525C127.57 24.3302 128.128 25.0812 128.436 26.0055L140.799 61.9367C141.068 62.7069 140.953 63.4194 140.452 64.074C139.99 64.7287 139.354 65.0561 138.546 65.0561H138.315C137.352 65.0561 136.466 64.7673 135.657 64.1896C134.887 63.6119 134.348 62.8609 134.04 61.9367L131.729 54.3114C131.691 54.0033 131.479 53.8493 131.094 53.8493H116.536C116.19 53.8493 115.978 54.0033 115.901 54.3114L113.59 61.9367C113.321 62.8609 112.781 63.6119 111.973 64.1896C111.202 64.7673 110.317 65.0561 109.315 65.0561Z" fill="#1A1A1A"/>
<path d="M83.3686 79.3269H84.9381V94.3764H83.3686V79.3269ZM73.9519 94.3764H72.361V79.3269H73.9519V94.3764ZM83.5191 87.4322H73.7799V86.0347H83.5191V87.4322ZM97.6115 94.5054C96.4792 94.5054 95.4257 94.3191 94.4511 93.9465C93.4908 93.5595 92.6523 93.022 91.9356 92.334C91.2333 91.6317 90.6815 90.8219 90.2802 89.9046C89.8932 88.9729 89.6997 87.9553 89.6997 86.8517C89.6997 85.748 89.8932 84.7376 90.2802 83.8203C90.6815 82.8886 91.2333 82.0788 91.9356 81.3908C92.6523 80.6885 93.4908 80.151 94.4511 79.7784C95.4114 79.3914 96.4648 79.1979 97.6115 79.1979C98.7438 79.1979 99.7901 79.3914 100.75 79.7784C101.711 80.151 102.542 80.6813 103.244 81.3693C103.961 82.0573 104.513 82.8671 104.9 83.7988C105.301 84.7304 105.502 85.748 105.502 86.8517C105.502 87.9553 105.301 88.9729 104.9 89.9046C104.513 90.8362 103.961 91.646 103.244 92.334C102.542 93.022 101.711 93.5595 100.75 93.9465C99.7901 94.3191 98.7438 94.5054 97.6115 94.5054ZM97.6115 93.0865C98.5145 93.0865 99.3458 92.936 100.105 92.635C100.879 92.3197 101.546 91.8825 102.105 91.3235C102.678 90.7502 103.122 90.0909 103.438 89.3456C103.753 88.586 103.911 87.7546 103.911 86.8517C103.911 85.9487 103.753 85.1246 103.438 84.3792C103.122 83.6196 102.678 82.9603 102.105 82.4013C101.546 81.828 100.879 81.3908 100.105 81.0898C99.3458 80.7745 98.5145 80.6168 97.6115 80.6168C96.7085 80.6168 95.87 80.7745 95.0961 81.0898C94.3221 81.3908 93.6484 81.828 93.0751 82.4013C92.5161 82.9603 92.0718 83.6196 91.7421 84.3792C91.4268 85.1246 91.2692 85.9487 91.2692 86.8517C91.2692 87.7403 91.4268 88.5645 91.7421 89.3241C92.0718 90.0837 92.5161 90.7502 93.0751 91.3235C93.6484 91.8825 94.3221 92.3197 95.0961 92.635C95.87 92.936 96.7085 93.0865 97.6115 93.0865ZM110.25 94.3764V79.3269H111.562L118.442 91.0655H117.754L124.569 79.3269H125.88V94.3764H124.354V81.7133H124.719L118.442 92.463H117.689L111.368 81.7133H111.777V94.3764H110.25ZM133.385 86.0562H141.34V87.4107H133.385V86.0562ZM133.557 93.0005H142.608V94.3764H131.966V79.3269H142.286V80.7028H133.557V93.0005Z" fill="black"/>
</g>
</svg>
