<svg xmlns="http://www.w3.org/2000/svg" width="87" height="65" viewBox="0 0 87 65" fill="none"><mask id="mask0_1_14" style="mask-type:alpha" maskUnits="userSpaceOnUse" x="0" y="0" width="87" height="65"><path d="M0 0H86.28V64.71H0V0Z" fill="white"></path></mask><g mask="url(#mask0_1_14)"><path fill-rule="evenodd" clip-rule="evenodd" d="M0 0V64.71H86.28V0H0Z" fill="#F50100"></path><mask id="mask1_1_14" style="mask-type:alpha" maskUnits="userSpaceOnUse" x="0" y="0" width="87" height="65"><path fill-rule="evenodd" clip-rule="evenodd" d="M0 0V64.71H86.28V0H0Z" fill="white"></path></mask><g mask="url(#mask1_1_14)"><path fill-rule="evenodd" clip-rule="evenodd" d="M0 -0.113221V10.8981L37.7475 26.9441L8.77691 -0.113221H0ZM43.14 32.355L51.2287 -8.63535e-05H35.0512L43.14 32.355ZM43.14 32.355L35.0512 64.71H51.2287L43.14 32.355ZM0 53.7934V64.8046H8.77691L37.7475 37.7475L0 53.7934ZM86.28 10.9638V-0.0474958H77.5032L48.5325 27.01L86.28 10.9638ZM86.28 64.8704V53.8592L48.5325 37.813L77.5032 64.8704H86.28ZM86.28 24.2662L53.925 32.355L86.28 40.4438V24.2662ZM32.355 32.355L0 24.2662V40.4438L32.355 32.355Z" fill="#FFD018"></path><path d="M43.14 45.8362C50.5854 45.8362 56.6213 39.8004 56.6213 32.355C56.6213 24.9095 50.5854 18.8737 43.14 18.8737C35.6946 18.8737 29.6588 24.9095 29.6588 32.355C29.6588 39.8004 35.6946 45.8362 43.14 45.8362Z" fill="#FFD018" stroke="#F50100" stroke-width="5.3925"></path></g></g></svg>